<svg width="1600" height="520" viewBox="0 0 1600 520" fill="none" xmlns="http://www.w3.org/2000/svg">
  <defs>
    <linearGradient id="bg" x1="0" y1="0" x2="1600" y2="520" gradientUnits="userSpaceOnUse">
      <stop stop-color="#0D47A1"/>
      <stop offset="0.5" stop-color="#1565C0"/>
      <stop offset="1" stop-color="#00897B"/>
    </linearGradient>
    <linearGradient id="card" x1="0" y1="0" x2="1" y2="1">
      <stop stop-color="#FFFFFF" stop-opacity="0.18"/>
      <stop offset="1" stop-color="#FFFFFF" stop-opacity="0.06"/>
    </linearGradient>
    <filter id="shadow" x="0" y="0" width="1600" height="520" filterUnits="userSpaceOnUse" color-interpolation-filters="sRGB">
      <feDropShadow dx="0" dy="18" stdDeviation="24" flood-color="#062C68" flood-opacity="0.25"/>
    </filter>
  </defs>

  <rect width="1600" height="520" rx="36" fill="url(#bg)"/>

  <circle cx="1320" cy="110" r="170" fill="#FFFFFF" fill-opacity="0.08"/>
  <circle cx="1480" cy="410" r="140" fill="#FDD835" fill-opacity="0.14"/>
  <circle cx="180" cy="90" r="120" fill="#26C6DA" fill-opacity="0.12"/>

  <g filter="url(#shadow)">
    <rect x="70" y="78" width="760" height="364" rx="28" fill="url(#card)" stroke="#FFFFFF" stroke-opacity="0.18"/>
  </g>

  <text x="120" y="170" fill="#E3F2FD" font-family="Verdana, Arial, sans-serif" font-size="28" font-weight="700">
    ODOO 17 • RECURSOS HUMANOS
  </text>
  <text x="120" y="245" fill="#FFFFFF" font-family="Verdana, Arial, sans-serif" font-size="66" font-weight="700">
    Planeación Operativa
  </text>
  <text x="120" y="300" fill="#D9F3FF" font-family="Verdana, Arial, sans-serif" font-size="30" font-weight="400">
    Horarios por empleado, control diario, recurrencia y evidencia fotográfica.
  </text>

  <g>
    <rect x="120" y="344" width="178" height="48" rx="24" fill="#F57C00"/>
    <text x="154" y="375" fill="#FFFFFF" font-family="Verdana, Arial, sans-serif" font-size="23" font-weight="700">Agenda visual</text>

    <rect x="318" y="344" width="182" height="48" rx="24" fill="#2E7D32"/>
    <text x="352" y="375" fill="#FFFFFF" font-family="Verdana, Arial, sans-serif" font-size="23" font-weight="700">Control por horas</text>

    <rect x="520" y="344" width="176" height="48" rx="24" fill="#00897B"/>
    <text x="555" y="375" fill="#FFFFFF" font-family="Verdana, Arial, sans-serif" font-size="23" font-weight="700">Fotos y notas</text>
  </g>

  <g>
    <rect x="980" y="78" width="480" height="364" rx="30" fill="#FFFFFF" fill-opacity="0.12" stroke="#FFFFFF" stroke-opacity="0.22"/>

    <rect x="1030" y="126" width="380" height="54" rx="18" fill="#FFFFFF" fill-opacity="0.86"/>
    <text x="1060" y="160" fill="#0D47A1" font-family="Verdana, Arial, sans-serif" font-size="26" font-weight="700">Lunes • Operación del día</text>

    <rect x="1030" y="205" width="380" height="58" rx="18" fill="#FFF3E0"/>
    <circle cx="1060" cy="234" r="10" fill="#F57C00"/>
    <text x="1085" y="240" fill="#7A4B00" font-family="Verdana, Arial, sans-serif" font-size="24" font-weight="700">Pendiente • Inventario inicial</text>

    <rect x="1030" y="280" width="380" height="58" rx="18" fill="#E3F2FD"/>
    <circle cx="1060" cy="309" r="10" fill="#1565C0"/>
    <text x="1085" y="315" fill="#0D47A1" font-family="Verdana, Arial, sans-serif" font-size="24" font-weight="700">En progreso • Visita técnica</text>

    <rect x="1030" y="355" width="380" height="58" rx="18" fill="#E8F5E9"/>
    <circle cx="1060" cy="384" r="10" fill="#2E7D32"/>
    <text x="1085" y="390" fill="#1B5E20" font-family="Verdana, Arial, sans-serif" font-size="24" font-weight="700">Completado • Cierre de jornada</text>
  </g>
</svg>